<?xml version="1.0" encoding="UTF-8"?>
<svg xmlns="http://www.w3.org/2000/svg" xmlns:xlink="http://www.w3.org/1999/xlink" width="46px" height="46px" viewBox="0 0 46 46" version="1.1">
<g id="surface1">
<path style=" stroke:none;fill-rule:evenodd;fill:rgb(13.725491%,19.215687%,57.254905%);fill-opacity:1;" d="M 16.699219 12.730469 C 15.9375 12.929688 15.597656 13.109375 14.234375 14.046875 C 11.929688 15.621094 11.46875 15.917969 10.765625 16.261719 C 10.121094 16.570312 10.003906 16.597656 9.039062 16.636719 L 8.003906 16.675781 L 8.050781 25.792969 L 8.988281 26.183594 L 9.929688 26.578125 L 10.941406 25.824219 C 12.660156 24.542969 13.386719 24.269531 14.128906 24.617188 C 14.59375 24.839844 15.085938 25.34375 15.316406 25.828125 L 15.503906 26.21875 L 16.15625 26.21875 C 16.722656 26.21875 16.859375 26.253906 17.214844 26.488281 C 17.488281 26.671875 17.710938 26.933594 17.902344 27.296875 C 18.113281 27.691406 18.246094 27.835938 18.410156 27.859375 C 18.820312 27.910156 19.546875 28.179688 19.890625 28.40625 C 20.265625 28.652344 20.699219 29.40625 20.699219 29.808594 C 20.699219 30.105469 20.855469 30.269531 21.132812 30.269531 C 21.691406 30.269531 22.605469 30.953125 22.828125 31.542969 C 22.878906 31.675781 22.910156 32.054688 22.890625 32.382812 L 22.863281 32.980469 L 23.507812 33.46875 C 24.480469 34.203125 25.261719 34.34375 25.785156 33.878906 C 26.042969 33.648438 26.167969 33.105469 26.046875 32.738281 C 25.949219 32.441406 24.640625 31.128906 22.800781 29.480469 C 22.464844 29.179688 22.183594 28.910156 22.179688 28.878906 C 22.175781 28.851562 22.335938 28.695312 22.539062 28.53125 L 22.902344 28.238281 L 23.941406 29.199219 C 27.839844 32.800781 28.074219 32.960938 28.867188 32.476562 C 29.199219 32.273438 29.347656 31.976562 29.347656 31.523438 C 29.347656 31.023438 29.316406 30.988281 25.621094 27.632812 C 25.066406 27.128906 24.601562 26.65625 24.59375 26.582031 C 24.582031 26.507812 24.71875 26.332031 24.894531 26.1875 L 25.210938 25.921875 L 25.753906 26.417969 C 26.054688 26.6875 27.183594 27.730469 28.261719 28.734375 C 29.339844 29.738281 30.382812 30.644531 30.578125 30.746094 C 31.515625 31.226562 32.515625 30.273438 32.066406 29.324219 C 31.921875 29.019531 31.246094 28.324219 30.261719 27.460938 C 28.351562 25.792969 26.957031 24.507812 26.957031 24.417969 C 26.957031 24.304688 27.53125 23.828125 27.664062 23.828125 C 27.746094 23.828125 28.0625 24.113281 29.347656 25.339844 C 31.203125 27.109375 32.523438 28.257812 32.871094 28.410156 C 33.625 28.734375 34.40625 28.242188 34.40625 27.445312 C 34.40625 26.992188 34.117188 26.621094 32.871094 25.484375 C 31.710938 24.425781 29.976562 22.824219 27.113281 20.171875 C 26.5 19.601562 25.960938 19.136719 25.917969 19.136719 C 25.8125 19.136719 24.808594 19.847656 23.136719 21.105469 C 21.234375 22.535156 21.128906 22.585938 20.003906 22.585938 C 19.199219 22.585938 19.019531 22.554688 18.632812 22.359375 C 17.234375 21.640625 16.59375 20.117188 17.113281 18.742188 C 17.335938 18.144531 18.019531 17.34375 18.851562 16.710938 C 21.828125 14.441406 21.730469 14.523438 21.554688 14.332031 C 21.335938 14.089844 20.65625 13.601562 20.148438 13.320312 C 19.042969 12.714844 17.660156 12.476562 16.699219 12.730469 M 26.542969 12.730469 C 25.421875 13.003906 24.726562 13.433594 21.925781 15.582031 C 18.253906 18.398438 18.117188 18.539062 18.050781 19.570312 C 18.027344 19.886719 18.035156 20.246094 18.066406 20.367188 C 18.144531 20.679688 18.542969 21.132812 18.984375 21.410156 C 19.445312 21.699219 20.300781 21.746094 20.792969 21.507812 C 20.96875 21.421875 22.1875 20.546875 23.496094 19.558594 C 25.316406 18.1875 25.914062 17.78125 26.027344 17.84375 C 26.109375 17.886719 26.609375 18.328125 27.140625 18.820312 C 28.457031 20.042969 31.253906 22.605469 31.699219 22.996094 C 31.898438 23.171875 32.660156 23.871094 33.390625 24.546875 C 34.125 25.226562 34.902344 25.925781 35.125 26.109375 C 35.566406 26.46875 35.589844 26.46875 36.570312 26.035156 C 36.773438 25.945312 37.09375 25.808594 37.285156 25.726562 L 37.628906 25.585938 L 37.605469 21.140625 C 37.585938 17.242188 37.566406 16.703125 37.445312 16.738281 C 37.054688 16.851562 36.261719 16.835938 35.652344 16.703125 C 34.554688 16.457031 33.640625 15.941406 31.199219 14.183594 C 29.242188 12.769531 27.984375 12.378906 26.542969 12.730469 M 13.046875 25.433594 C 12.675781 25.5625 11.328125 26.5625 11.046875 26.921875 C 10.8125 27.21875 10.789062 27.921875 11 28.222656 C 11.183594 28.488281 11.605469 28.703125 11.9375 28.703125 C 12.332031 28.703125 13.027344 28.316406 13.796875 27.667969 C 14.316406 27.230469 14.5 27.019531 14.546875 26.785156 C 14.730469 25.878906 13.910156 25.136719 13.046875 25.433594 M 15.960938 27.113281 C 15.5 27.203125 14.875 27.636719 14.164062 28.359375 C 13.4375 29.09375 13.304688 29.324219 13.304688 29.828125 C 13.304688 30.246094 13.339844 30.324219 13.644531 30.601562 C 14.238281 31.144531 14.78125 30.972656 15.960938 29.871094 C 16.265625 29.585938 16.542969 29.351562 16.582031 29.351562 C 16.621094 29.347656 16.773438 29.175781 16.925781 28.964844 C 17.308594 28.441406 17.316406 27.816406 16.949219 27.425781 C 16.703125 27.164062 16.320312 27.042969 15.960938 27.113281 M 17.507812 29.542969 C 16.085938 30.660156 15.730469 31.089844 15.730469 31.699219 C 15.730469 31.957031 15.804688 32.105469 16.042969 32.347656 C 16.316406 32.621094 16.417969 32.660156 16.816406 32.660156 C 17.214844 32.660156 17.347656 32.605469 17.816406 32.261719 C 18.570312 31.707031 19.488281 30.839844 19.648438 30.535156 C 19.882812 30.078125 19.820312 29.644531 19.46875 29.292969 C 19.195312 29.019531 19.09375 28.980469 18.691406 28.980469 C 18.261719 28.980469 18.171875 29.023438 17.507812 29.542969 M 19.984375 31.441406 C 19.371094 31.855469 18.40625 32.746094 18.253906 33.042969 C 17.839844 33.84375 18.316406 34.59375 19.246094 34.59375 C 19.675781 34.59375 20.128906 34.335938 21.25 33.460938 C 21.835938 33.003906 21.988281 32.753906 21.988281 32.261719 C 21.980469 31.320312 20.851562 30.855469 19.984375 31.441406 "/>
</g>
</svg>
