<svg xmlns="http://www.w3.org/2000/svg" width="500" height="500" viewBox="0 0 500 500" version="1.1">
	<path d="M 181.500 138.366 C 173.228 140.537, 169.557 142.496, 154.711 152.663 C 129.674 169.809, 124.651 173.016, 117 176.738 C 110.019 180.133, 108.721 180.416, 98.241 180.819 L 86.981 181.252 87.241 230.801 L 87.500 280.350 97.712 284.616 L 107.924 288.882 118.925 280.691 C 137.628 266.765, 145.521 263.781, 153.561 267.596 C 158.607 269.991, 163.994 275.470, 166.500 280.757 L 168.500 284.977 175.600 284.989 C 181.776 284.999, 183.271 285.382, 187.100 287.935 C 190.078 289.921, 192.501 292.748, 194.597 296.685 C 196.885 300.981, 198.322 302.580, 200.097 302.805 C 204.556 303.370, 212.476 306.300, 216.215 308.768 C 220.267 311.442, 225 319.647, 225 323.996 C 225 327.216, 226.680 329, 229.711 329 C 235.792 329, 245.692 336.446, 248.142 342.861 C 248.696 344.312, 249.003 348.423, 248.825 351.995 L 248.500 358.490 255.500 363.770 C 266.099 371.764, 274.572 373.293, 280.259 368.238 C 283.081 365.729, 284.435 359.848, 283.113 355.841 C 282.049 352.618, 267.838 338.361, 247.845 320.459 C 244.184 317.182, 241.146 314.238, 241.095 313.917 C 241.043 313.597, 242.787 311.898, 244.972 310.143 L 248.944 306.951 260.222 317.377 C 302.587 356.544, 305.155 358.251, 313.775 352.996 C 317.372 350.803, 319 347.581, 319 342.657 C 319 337.194, 318.666 336.845, 278.501 300.361 C 272.452 294.866, 267.415 289.724, 267.308 288.935 C 267.201 288.146, 268.671 286.211, 270.574 284.636 L 274.035 281.772 279.947 287.136 C 283.198 290.086, 295.453 301.430, 307.179 312.344 C 318.906 323.259, 330.246 333.085, 332.380 334.181 C 342.581 339.419, 353.436 329.043, 348.543 318.732 C 346.977 315.432, 339.628 307.852, 328.925 298.499 C 308.185 280.374, 293 266.388, 293 265.410 C 293 264.195, 299.243 258.993, 300.683 259.009 C 301.592 259.018, 305.043 262.111, 319.008 275.431 C 339.181 294.672, 353.522 307.169, 357.297 308.795 C 365.479 312.320, 374 306.984, 374 298.336 C 374 293.390, 370.839 289.351, 357.303 277 C 344.701 265.501, 325.814 248.072, 294.723 219.250 C 288.049 213.063, 282.186 208, 281.696 208 C 280.581 208, 269.651 215.743, 251.500 229.391 C 230.812 244.947, 229.643 245.500, 217.436 245.500 C 208.682 245.500, 206.742 245.176, 202.537 243.016 C 187.350 235.214, 180.380 218.654, 185.995 203.715 C 188.442 197.207, 195.868 188.535, 204.890 181.648 C 237.249 156.951, 236.198 157.876, 234.299 155.778 C 231.921 153.150, 224.504 147.829, 219 144.800 C 207.001 138.198, 191.968 135.619, 181.500 138.366 M 288.500 138.391 C 276.337 141.361, 268.779 146.029, 238.316 169.382 C 198.416 199.970, 196.938 201.491, 196.187 212.724 C 195.958 216.148, 196.047 220.050, 196.385 221.397 C 197.233 224.777, 201.559 229.697, 206.334 232.711 C 211.341 235.872, 220.640 236.385, 226 233.797 C 227.925 232.867, 241.152 223.326, 255.393 212.595 C 275.165 197.695, 281.666 193.290, 282.893 193.957 C 283.777 194.438, 289.225 199.221, 295 204.585 C 309.295 217.865, 339.707 245.714, 344.552 249.961 C 346.723 251.865, 355.007 259.449, 362.959 266.816 C 370.912 274.182, 379.380 281.816, 381.777 283.781 C 386.580 287.716, 386.848 287.703, 397.500 282.980 C 399.700 282.005, 403.192 280.507, 405.260 279.651 L 409.019 278.094 408.760 229.797 C 408.532 187.418, 408.316 181.554, 407 181.941 C 402.767 183.185, 394.133 183.008, 387.539 181.541 C 375.589 178.882, 365.655 173.262, 339.134 154.153 C 317.852 138.819, 304.179 134.563, 288.500 138.391 M 141.804 276.457 C 137.780 277.840, 123.146 288.727, 120.093 292.609 C 117.539 295.856, 117.252 303.487, 119.561 306.783 C 121.579 309.665, 126.141 312, 129.754 312 C 134.031 312, 141.611 307.781, 149.962 300.754 C 155.620 295.992, 157.588 293.670, 158.105 291.143 C 160.123 281.276, 151.191 273.230, 141.804 276.457 M 173.500 294.707 C 168.498 295.697, 161.689 300.419, 153.941 308.270 C 146.074 316.240, 144.615 318.737, 144.615 324.226 C 144.615 328.747, 144.990 329.602, 148.293 332.630 C 154.747 338.545, 160.672 336.677, 173.500 324.684 C 176.800 321.599, 179.835 319.058, 180.244 319.037 C 180.653 319.017, 182.340 317.132, 183.994 314.850 C 188.132 309.137, 188.236 302.342, 184.250 298.116 C 181.539 295.242, 177.412 293.933, 173.500 294.707 M 190.316 321.132 C 174.833 333.279, 171 337.927, 171 344.550 C 171 347.368, 171.775 348.975, 174.400 351.600 C 177.358 354.558, 178.448 355, 182.790 355 C 187.101 355, 188.577 354.413, 193.640 350.683 C 201.842 344.640, 211.844 335.202, 213.558 331.889 C 216.111 326.951, 215.425 322.225, 211.600 318.400 C 208.634 315.434, 207.558 315, 203.166 315 C 198.517 315, 197.532 315.470, 190.316 321.132 M 217.222 341.750 C 210.543 346.252, 200.085 355.936, 198.417 359.161 C 193.908 367.880, 199.097 376, 209.176 376 C 213.881 376, 218.802 373.227, 230.959 363.724 C 237.335 358.740, 239.010 356.020, 238.985 350.685 C 238.938 340.453, 226.637 335.403, 217.222 341.750" stroke="none" fill="#233192" fill-rule="evenodd"/>
</svg>